<?xml version="1.0" encoding="UTF-8"?>
<svg version="1.1" xmlns="http://www.w3.org/2000/svg" width="220" height="220">
<path d="M0 0 C72.6 0 145.2 0 220 0 C220 72.6 220 145.2 220 220 C147.4 220 74.8 220 0 220 C0 147.4 0 74.8 0 0 Z " fill="#FC6534" transform="translate(0,0)"/>
<path d="M0 0 C2.27264404 0.11013794 2.27264404 0.11013794 5 1 C6.8694458 3.64987183 6.8694458 3.64987183 8.63769531 7.23779297 C8.96534378 7.89016937 9.29299225 8.54254578 9.63056946 9.21469116 C10.71381502 11.38235686 11.77084234 13.56175564 12.828125 15.7421875 C13.58260223 17.2654147 14.33863023 18.78787466 15.09613037 20.30960083 C17.0946805 24.33544033 19.07109667 28.37177207 21.043396 32.41052246 C23.01908738 36.44585387 25.01657273 40.47035658 27.01171875 44.49609375 C33.49523848 57.59765335 39.92956859 70.72123959 46.14042664 83.95466614 C49.30801877 90.69571708 52.63848352 97.35050641 55.99346924 103.99981689 C57.75634432 107.50301132 59.49980926 111.01585906 61.24609375 114.52734375 C62.29191965 116.6263787 63.33819185 118.72519073 64.38452148 120.82397461 C65.09971844 122.25950906 65.8142122 123.69539401 66.52807617 125.1315918 C67.57806839 127.24360175 68.63056951 129.35434425 69.68359375 131.46484375 C70.0033165 132.10945053 70.32303925 132.75405731 70.65245056 133.41819763 C72.03023833 136.40868512 72.03023833 136.40868512 74 139 C85.43496872 116.34075928 85.43496872 116.34075928 96.5 93.5 C101.38071581 83.17749017 106.49315193 72.9769461 111.61798096 62.77429199 C116.57017798 52.91125015 121.43576927 43.01598041 126.15771484 33.04003906 C129.84252215 25.27191303 133.67696224 17.58285743 137.56201172 9.91308594 C137.99787598 9.04973633 138.43374023 8.18638672 138.8828125 7.296875 C139.46119873 6.15750488 139.46119873 6.15750488 140.05126953 4.99511719 C141.10990185 2.87333388 141.10990185 2.87333388 142 0 C143.32 0 144.64 0 146 0 C148.2069269 8.91355765 149.36966728 17.9768827 150.64453125 27.05859375 C150.89840558 28.8476271 151.152619 30.63661236 151.40715027 32.42555237 C152.07736315 37.14173255 152.74351238 41.85847735 153.40863037 46.57537842 C154.45747098 54.00824568 155.51263547 61.44021995 156.56711006 68.87228966 C156.8273887 70.70716038 157.08752398 72.54205145 157.34751701 74.37696266 C159.66266712 90.71400677 162.05095675 107.03956035 164.46389771 123.36239624 C165.64164001 131.35370664 166.79577603 139.34840693 167.94067383 147.34448242 C168.19653661 149.12880193 168.45343147 150.91297364 168.71118164 152.69702148 C169.09724881 155.3693412 169.48060753 158.04203627 169.86328125 160.71484375 C169.97883865 161.51139877 170.09439606 162.3079538 170.2134552 163.12864685 C170.6382186 166.11424958 171 168.97992373 171 172 C165.06 172 159.12 172 153 172 C152.60059204 169.10541016 152.60059204 169.10541016 152.19311523 166.15234375 C150.94348461 157.10125206 149.6913649 148.05050606 148.4375 139 C148.32471962 138.18592682 148.21193924 137.37185364 148.09574127 136.53311157 C144.18829369 108.3366416 140.15684386 80.1608594 136 52 C130.71140433 62.55378555 125.42511124 73.10872112 120.14157391 83.66504002 C117.68685487 88.56930995 115.23141095 93.47321384 112.77416992 98.3762207 C99.25086952 125.24702781 99.25086952 125.24702781 86.17460632 152.33668518 C83.02523901 159.02920316 79.62578785 165.55277997 76 172 C74.35 172 72.7 172 71 172 C51.2 132.4 31.4 92.8 11 52 C10.67 52 10.34 52 10 52 C6.72103514 73.72094569 3.61987864 95.45459636 0.875 117.25 C0.75023285 118.24013092 0.6254657 119.23026184 0.49691772 120.25039673 C0.24845168 122.22266043 -0.00000728 124.19492503 -0.24845886 126.16719055 C-0.36885025 127.12264267 -0.48924164 128.07809479 -0.61328125 129.0625 C-0.73153763 130.00139572 -0.84979401 130.94029144 -0.97163391 131.90763855 C-2.03942375 140.36146591 -3.15579645 148.80790355 -4.3125 157.25 C-4.47186035 158.42723633 -4.6312207 159.60447266 -4.79541016 160.81738281 C-4.94155762 161.87280273 -5.08770508 162.92822266 -5.23828125 164.015625 C-5.36243408 164.91571289 -5.48658691 165.81580078 -5.61450195 166.74316406 C-6 169 -6 169 -7 172 C-12.61 172 -18.22 172 -24 172 C-23.40234371 164.17273823 -22.5936102 156.44078216 -21.46533203 148.67382812 C-21.31394775 147.61180176 -21.16256348 146.54977539 -21.0065918 145.45556641 C-20.51035454 141.98030451 -20.00914924 138.5057796 -19.5078125 135.03125 C-19.1574172 132.58528693 -18.80731457 130.13928192 -18.45748901 127.6932373 C-17.53787729 121.26932061 -16.6139516 114.84603136 -15.68920898 108.42285156 C-14.94169119 103.2254842 -14.19726086 98.02767691 -13.45300484 92.82984161 C-12.55567923 86.56349062 -11.65693233 80.29734378 -10.7578125 74.03125 C-10.59015507 72.86255875 -10.42249763 71.69386749 -10.24975967 70.48976135 C-8.41891558 57.73663083 -6.56477534 44.98776327 -4.63819885 32.24871826 C-3.65794052 25.75467386 -2.73476473 19.25250465 -1.8125 12.75 C-1.63525391 11.50476562 -1.45800781 10.25953125 -1.27539062 8.9765625 C-0.84959274 5.98446924 -0.42445808 2.99228356 0 0 Z " fill="#383462" transform="translate(37,24)"/>
<path d="M0 0 C2.66666667 1.33333333 5.33333333 2.66666667 8 4 C8.928125 3.01 8.928125 3.01 9.875 2 C12 0 12 0 14 0 C13.40072174 3.35595828 12.15377564 5.37801226 10 8 C10.66 8.598125 11.32 9.19625 12 9.8125 C14 12 14 12 14 15 C11.33333333 13.66666667 8.66666667 12.33333333 6 11 C5.071875 11.99 5.071875 11.99 4.125 13 C2 15 2 15 0 15 C0.59927826 11.64404172 1.84622436 9.62198774 4 7 C3.34 6.401875 2.68 5.80375 2 5.1875 C0 3 0 3 0 0 Z " fill="#ECA572" transform="translate(132,165)"/>
<path d="M0 0 C2.66666667 1.33333333 5.33333333 2.66666667 8 4 C8.928125 3.01 8.928125 3.01 9.875 2 C12 0 12 0 14 0 C13.75 1.875 13.75 1.875 13 4 C10.9375 5.25 10.9375 5.25 9 6 C10.2375 7.3921875 10.2375 7.3921875 11.5 8.8125 C14 11.625 14 11.625 14 15 C10.63408134 13.55746343 8.48952921 11.66735273 6 9 C6 9.66 6 10.32 6 11 C4.37373596 12.38232443 2.7074998 13.71937515 1 15 C0.67 14.01 0.34 13.02 0 12 C1.9375 9.3125 1.9375 9.3125 4 7 C3.34 6.401875 2.68 5.80375 2 5.1875 C0 3 0 3 0 0 Z " fill="#EEA77C" transform="translate(132,59)"/>
<path d="M0 0 C2.66666667 1.33333333 5.33333333 2.66666667 8 4 C8.928125 3.01 8.928125 3.01 9.875 2 C12 0 12 0 14 0 C13.42655063 2.86724686 13.1385485 3.8614515 11 6 C11.33693943 9.36939433 12.88819408 11.42910583 15 14 C14.01 14.495 14.01 14.495 13 15 C10.69 13.02 8.38 11.04 6 9 C5.34 10.32 4.68 11.64 4 13 C3.01 13.66 2.02 14.32 1 15 C1 11 1 11 2.5 9.25 C2.995 8.8375 3.49 8.425 4 8 C2.6910428 4.87802522 2.6910428 4.87802522 0 3 C0 2.01 0 1.02 0 0 Z " fill="#EFA579" transform="translate(185,6)"/>
<path d="M0 0 C2.66666667 1.33333333 5.33333333 2.66666667 8 4 C8.928125 3.01 8.928125 3.01 9.875 2 C12 0 12 0 14 0 C13.6875 1.9375 13.6875 1.9375 13 4 C12.01 4.33 11.02 4.66 10 5 C11.07401108 7.91517292 11.77810176 9.77810176 14 12 C13.67 12.99 13.34 13.98 13 15 C11.2925002 13.71937515 9.62626404 12.38232443 8 11 C8 10.34 8 9.68 8 9 C5.56070254 10.92576115 3.19909405 12.80090595 1 15 C1 11 1 11 2.5 9.375 C2.995 8.92125 3.49 8.4675 4 8 C4 7.34 4 6.68 4 6 C3.34 5.525625 2.68 5.05125 2 4.5625 C1.34 4.046875 0.68 3.53125 0 3 C0 2.01 0 1.02 0 0 Z " fill="#EEA67B" transform="translate(79,6)"/>
<path d="M0 0 C-0.59927826 3.35595828 -1.84622436 5.37801226 -4 8 C-3.34 8.598125 -2.68 9.19625 -2 9.8125 C0 12 0 12 0 15 C-2.86095641 13.7175023 -5.11365918 12.54656011 -7 10 C-7.5 7.625 -7.5 7.625 -7 5 C-2.77777778 0 -2.77777778 0 0 0 Z " fill="#EAA77A" transform="translate(40,165)"/>
<path d="M0 0 C2.46800047 1.15173355 4.04783565 2.04783565 6 4 C5.91752685 9.19580857 5.91752685 9.19580857 5 12 C2.4375 14 2.4375 14 0 15 C0.59927826 11.64404172 1.84622436 9.62198774 4 7 C3.34 6.401875 2.68 5.80375 2 5.1875 C0 3 0 3 0 0 Z " fill="#EBA97D" transform="translate(26,59)"/>
<path d="M0 0 C0.99 0.33 1.98 0.66 3 1 C3 1.66 3 2.32 3 3 C2.34 3 1.68 3 1 3 C0.7525 3.61875 0.505 4.2375 0.25 4.875 C-1.20628639 7.35068687 -2.37812506 7.95125002 -5 9 C-4.42647107 5.12867972 -2.51295648 2.91827204 0 0 Z " fill="#EFB085" transform="translate(137,171)"/>
<path d="M0 0 C0.66 0 1.32 0 2 0 C0.64978174 4.41889613 -1.26115668 6.34345343 -5 9 C-5.33 8.01 -5.66 7.02 -6 6 C-4.71034824 4.62437146 -3.37310707 3.29233607 -2 2 C-1.34 2 -0.68 2 0 2 C0 1.34 0 0.68 0 0 Z " fill="#F5B385" transform="translate(138,65)"/>
<path d="M0 0 C3.36179774 1.44077046 5.59156268 3.24750021 8 6 C8 6.66 8 7.32 8 8 C7.34 8 6.68 8 6 8 C6 7.34 6 6.68 6 6 C5.195625 5.7525 4.39125 5.505 3.5625 5.25 C1 4 1 4 0.1875 1.875 C0.125625 1.25625 0.06375 0.6375 0 0 Z " fill="#F1B083" transform="translate(79,6)"/>
<path d="M0 0 C3.36179774 1.44077046 5.59156268 3.24750021 8 6 C8 6.66 8 7.32 8 8 C5.04987143 6.63029745 2.4347778 5.17390875 0 3 C0 2.01 0 1.02 0 0 Z " fill="#F2B389" transform="translate(185,6)"/>
<path d="M0 0 C-0.39803561 2.88575819 -0.79009069 3.82189513 -3.0625 5.75 C-3.701875 6.1625 -4.34125 6.575 -5 7 C-5 3 -5 3 -3.625 1.25 C-2 0 -2 0 0 0 Z " fill="#EBA177" transform="translate(93,112)"/>
<path d="M0 0 C0.66 0 1.32 0 2 0 C1.75 1.875 1.75 1.875 1 4 C-1.0625 5.25 -1.0625 5.25 -3 6 C-2.42655063 3.13275314 -2.1385485 2.1385485 0 0 Z " fill="#F1AB82" transform="translate(144,165)"/>
</svg>
